<svg xmlns="http://www.w3.org/2000/svg" viewBox="0 0 200 50">
  <path fill="#FF5C5C" d="M20 10h10v30H20zM35 5h10v40H35zM50 15h10v20H50z"/>
  <path fill="#2D2D2D" d="M70 15h8v5h.2c1.6-3.8 5.3-6 9.8-6 7.2 0 11.6 5.2 11.6 12.8v18.4h-8.3V28.4c0-4.6-2.2-7.2-6.4-7.2-4.3 0-6.9 3.2-6.9 8v16h-8V15zm35.3 20.2c0-9.8 7-20.6 19.5-20.6 12.6 0 19.5 10.8 19.5 20.6 0 9.7-7 20.5-19.5 20.5-12.6 0-19.5-10.8-19.5-20.5zm30.5 0c0-5.8-3.2-13-11-13s-11 7.2-11 13c0 5.7 3.2 12.9 11 12.9s11-7.2 11-12.9zm25.4-20.2h8v5h.2c1.6-3.8 5.3-6 9.8-6 7.2 0 11.6 5.2 11.6 12.8v18.4h-8.3V28.4c0-4.6-2.2-7.2-6.4-7.2-4.3 0-6.9 3.2-6.9 8v16h-8V15z"/>
</svg> 