<?xml version="1.0" standalone="no"?>
<!DOCTYPE svg PUBLIC "-//W3C//DTD SVG 20010904//EN"
 "http://www.w3.org/TR/2001/REC-SVG-20010904/DTD/svg10.dtd">
<svg version="1.0" xmlns="http://www.w3.org/2000/svg"
 width="300.000000pt" height="300.000000pt" viewBox="0 0 300.000000 300.000000"
 preserveAspectRatio="xMidYMid meet">
<metadata>
Created by potrace 1.14, written by Peter Selinger 2001-2017
</metadata>
<g transform="translate(0.000000,300.000000) scale(0.100000,-0.100000)"
fill="#000000" stroke="none">
<path d="M1320 2990 c-188 -26 -341 -74 -511 -161 -403 -208 -682 -579 -780
-1039 -33 -151 -33 -429 0 -580 98 -460 376 -830 781 -1039 132 -68 249 -110
400 -142 151 -33 429 -33 580 0 151 32 268 74 400 142 405 209 683 579 781
1039 33 151 33 429 0 580 -98 460 -376 830 -781 1039 -215 111 -403 159 -650
166 -85 2 -184 0 -220 -5z m-1 -1027 c1 -134 5 -243 9 -243 5 0 67 42 138 93
l129 93 6 95 c4 52 7 156 8 231 0 75 5 139 10 142 13 8 524 -25 535 -35 13
-12 -31 -561 -47 -571 -6 -5 -75 -47 -152 -95 -77 -47 -144 -89 -148 -93 -5
-4 66 -40 157 -81 91 -40 166 -77 166 -81 0 -4 25 -161 55 -349 30 -189 53
-344 51 -347 -6 -5 -556 -36 -560 -31 -2 2 -9 98 -15 214 -7 116 -14 219 -16
230 -3 17 -193 156 -284 210 -11 6 -12 -43 -6 -307 4 -179 4 -318 -1 -320 -5
-3 -126 -7 -269 -9 l-260 -4 -6 480 c-3 264 -8 638 -10 830 l-3 350 249 5 250
5 6 -85 c4 -47 7 -194 8 -327z"/>
</g>
</svg>
