<?xml version="1.0" standalone="no"?>
<!DOCTYPE svg PUBLIC "-//W3C//DTD SVG 20010904//EN"
 "http://www.w3.org/TR/2001/REC-SVG-20010904/DTD/svg10.dtd">
<svg version="1.0" xmlns="http://www.w3.org/2000/svg"
 width="300.000000pt" height="300.000000pt" viewBox="0 0 300.000000 300.000000"
 preserveAspectRatio="xMidYMid meet">
<metadata>
Created by potrace 1.14, written by Peter Selinger 2001-2017
</metadata>
<g transform="translate(0.000000,300.000000) scale(0.100000,-0.100000)"
fill="#000000" stroke="none">
<path d="M1320 2990 c-188 -26 -341 -74 -511 -161 -403 -208 -682 -579 -780
-1039 -33 -151 -33 -429 0 -580 98 -460 376 -830 781 -1039 132 -68 249 -110
400 -142 151 -33 429 -33 580 0 151 32 268 74 400 142 405 209 683 579 781
1039 33 151 33 429 0 580 -98 460 -376 830 -781 1039 -215 111 -403 159 -650
166 -85 2 -184 0 -220 -5z m-1 -1032 c1 -143 5 -238 10 -238 6 0 68 42 138 94
l128 93 6 89 c4 49 7 153 8 231 1 78 5 144 10 147 12 8 524 -25 535 -35 13
-11 -32 -561 -47 -571 -6 -5 -79 -50 -160 -100 -81 -50 -144 -94 -140 -98 4
-4 79 -37 166 -75 86 -38 157 -72 157 -76 0 -4 25 -161 55 -350 30 -189 53
-345 50 -347 -5 -5 -555 -36 -559 -31 -2 2 -9 98 -15 214 -7 116 -14 219 -16
230 -3 17 -193 156 -283 209 -12 7 -13 -46 -10 -310 l3 -319 -259 -8 c-195 -6
-261 -5 -266 3 -6 9 -25 1273 -25 1615 l0 40 250 5 250 5 6 -90 c4 -49 7 -197
8 -327z"/>
</g>
</svg>
